<svg xmlns="http://www.w3.org/2000/svg" width="26.389" height="28.878" viewBox="0 0 26.389 28.878">
  <g id="business-contact-85" transform="translate(0.439 0.439)">
    <path id="Shape" d="M0,0H3.733" transform="translate(15.244 22.711)" fill="none" stroke="#fff" stroke-linecap="round" stroke-linejoin="round" stroke-miterlimit="10" stroke-width="1.5"/>
    <path id="Shape-2" data-name="Shape" d="M0,2.4a8.16,8.16,0,0,0,1.848.221A8.68,8.68,0,0,0,8.07,0a8.719,8.719,0,0,0,5.618,2.594" transform="translate(5.912 5.289)" fill="none" stroke="#df4c3b" stroke-linecap="round" stroke-linejoin="round" stroke-miterlimit="10" stroke-width="1.5"/>
    <path id="Shape-3" data-name="Shape" d="M9.632,0,1.208,5.054A2.489,2.489,0,0,0,0,7.189V10a2,2,0,0,0,2,2H22.889a2,2,0,0,0,2-2V7.189a2.489,2.489,0,0,0-1.208-2.134L15.257,0" transform="translate(0.311 15.687)" fill="none" stroke="#fff" stroke-linecap="round" stroke-linejoin="round" stroke-miterlimit="10" stroke-width="1.5"/>
    <path id="Shape-4" data-name="Shape" d="M0,7.467C0,3.733,2.721,0,6.844,0s6.844,3.733,6.844,7.467c0,5.6-3.733,8.711-6.844,8.711S0,13.067,0,7.467Z" transform="translate(5.911 0.311)" fill="none" stroke="#df4c3b" stroke-linecap="round" stroke-linejoin="round" stroke-miterlimit="10" stroke-width="1.5"/>
  </g>
</svg>
