<svg xmlns="http://www.w3.org/2000/svg" width="33.5" height="21.5" viewBox="0 0 33.5 21.5">
  <g id="dumbbells" transform="translate(0.75 0.75)">
    <path id="Shape" d="M0,1.067H12.9" transform="translate(9.5 10.433)" fill="none" stroke="#fff" stroke-linecap="square" stroke-miterlimit="10" stroke-width="1.5"/>
    <path id="Shape-2" data-name="Shape" d="M0,1.067H12.9" transform="translate(9.5 7.433)" fill="none" stroke="#fff" stroke-linecap="square" stroke-miterlimit="10" stroke-width="1.5"/>
    <path id="Shape-3" data-name="Shape" d="M1.75,20h0A1.75,1.75,0,0,1,0,18.25V1.75A1.75,1.75,0,0,1,1.75,0h0A1.75,1.75,0,0,1,3.5,1.75v16.5A1.75,1.75,0,0,1,1.75,20Z" transform="translate(22.5)" fill="none" stroke="#df4c3b" stroke-linecap="square" stroke-miterlimit="10" stroke-width="1.5"/>
    <path id="Shape-4" data-name="Shape" d="M1.75,20h0A1.75,1.75,0,0,1,0,18.25V1.75A1.75,1.75,0,0,1,1.75,0h0A1.75,1.75,0,0,1,3.5,1.75v16.5A1.75,1.75,0,0,1,1.75,20Z" transform="translate(6)" fill="none" stroke="#df4c3b" stroke-linecap="square" stroke-miterlimit="10" stroke-width="1.5"/>
    <path id="Shape-5" data-name="Shape" d="M3,10.5A1.5,1.5,0,0,1,1.5,12h0A1.5,1.5,0,0,1,0,10.5v-9A1.5,1.5,0,0,1,1.5,0h0A1.5,1.5,0,0,1,3,1.5" transform="translate(3 4)" fill="none" stroke="#df4c3b" stroke-linecap="square" stroke-miterlimit="10" stroke-width="1.5"/>
    <path id="Shape_Copy_2" data-name="Shape Copy 2" d="M3,5.167a1.5,1.5,0,0,1-3,0V1.5a1.5,1.5,0,0,1,3,0Z" transform="translate(0 6.667)" fill="none" stroke="#df4c3b" stroke-linecap="square" stroke-miterlimit="10" stroke-width="1.5"/>
    <path id="Shape-6" data-name="Shape" d="M0,10.5a1.5,1.5,0,0,0,3,0v-9a1.5,1.5,0,0,0-3,0" transform="translate(26 4)" fill="none" stroke="#df4c3b" stroke-linecap="square" stroke-miterlimit="10" stroke-width="1.5"/>
    <path id="Shape_Copy" data-name="Shape Copy" d="M0,5.167a1.5,1.5,0,0,0,3,0V1.5a1.5,1.5,0,0,0-3,0" transform="translate(29 6.667)" fill="none" stroke="#df4c3b" stroke-linecap="square" stroke-miterlimit="10" stroke-width="1.5"/>
  </g>
</svg>
