<svg xmlns="http://www.w3.org/2000/svg" width="54.829" height="31.706" viewBox="0 0 54.829 31.706">
  <g id="Logo" transform="translate(0 -0.057)">
    <path id="Fill-1" d="M37.323,7.727A7.973,7.973,0,0,1,33.844,9.7a14.762,14.762,0,0,1-2.566.542,19.011,19.011,0,0,1-2.232.155,18.326,18.326,0,0,1-3.03-.267c-.084-.013-.157-.035-.165-.125-.013-.142.111-.11.183-.115a17.148,17.148,0,0,0,2.482-.383A20.366,20.366,0,0,0,31.592,8.6,5.868,5.868,0,0,0,33.974,7.09a1.765,1.765,0,0,0,.061-2.553,2.854,2.854,0,0,0-1.244-.769,5.8,5.8,0,0,0-2.182-.361,18.3,18.3,0,0,0-2.311.314,23.544,23.544,0,0,0-2.546.626,48.7,48.7,0,0,0-4.931,1.8q-1.894.8-3.745,1.689c-.99.479-1.981.956-2.959,1.462-1.124.582-2.234,1.19-3.346,1.794-.7.382-1.405.767-2.1,1.17-1.1.641-2.2,1.287-3.282,1.952C4.14,14.98,2.9,15.767,1.657,16.554c-.481.3-.947.632-1.418.949-.068.046-.14.142-.218.043-.063-.08.033-.122.084-.178a36.163,36.163,0,0,1,3.582-3.434c1.46-1.234,2.975-2.394,4.529-3.508s3.158-2.184,4.794-3.188c1.542-.947,3.115-1.843,4.725-2.672,1.389-.715,2.794-1.4,4.23-2.007a39.462,39.462,0,0,1,4.7-1.679A27.436,27.436,0,0,1,30,.156a11.406,11.406,0,0,1,3.408-.05A6.957,6.957,0,0,1,36.8,1.485a4.39,4.39,0,0,1,1.725,2.71,3.9,3.9,0,0,1-1.2,3.533" transform="translate(0 14.174)" fill="#fff"/>
    <path id="Combined_Shape" data-name="Combined Shape" d="M0,16.912c.112-.142.216-.289.334-.424A25.217,25.217,0,0,1,3.55,13.443,20.825,20.825,0,0,1,7.768,10.8a20.589,20.589,0,0,1,3.83-1.35,33.522,33.522,0,0,1,3.9-.711q1.578-.2,3.162-.347c1.084-.1,2.166-.217,3.246-.345.824-.1,1.648-.2,2.464-.347,1.187-.209,2.369-.444,3.542-.733a41.267,41.267,0,0,0,4.728-1.513,33.213,33.213,0,0,0,3.343-1.512A42.961,42.961,0,0,0,41.031.92c.148-.1.286-.288.57-.249a7.662,7.662,0,0,1-.859,1.136,29.372,29.372,0,0,1-2.548,2.722,23.474,23.474,0,0,1-5.717,3.944,24.466,24.466,0,0,1-4.253,1.571c-1.029.283-2.076.512-3.128.694q-1.678.289-3.376.472c-1.092.117-2.182.246-3.276.348-.988.094-1.976.206-2.957.343-.868.122-1.735.237-2.6.39-.788.139-1.575.278-2.355.456a30.769,30.769,0,0,0-5.085,1.6c-1.093.461-2.143,1-3.184,1.565-.654.355-1.346.641-2.02.962a.387.387,0,0,1-.166.045A.266.266,0,0,1,0,16.912ZM9.747,7.019c-.061-.094.066-.177.146-.248a26.7,26.7,0,0,1,4.321-3.082,31.34,31.34,0,0,1,4.935-2.233A21.152,21.152,0,0,1,21.934.651c.565-.126,1.132-.245,1.7-.344.469-.082.942-.139,1.415-.19A11.479,11.479,0,0,1,27.465.036a6.546,6.546,0,0,1,2.309.49A.984.984,0,0,1,30.1,2.157a6.42,6.42,0,0,1-3.231,1.936,13.971,13.971,0,0,1-2.767.429c-.63.043-1.266.008-1.977.008a37.155,37.155,0,0,0-4.894.267,18.324,18.324,0,0,0-3.66.74,23.112,23.112,0,0,0-3.547,1.437c-.064.031-.136.09-.2.09A.087.087,0,0,1,9.747,7.019Z" transform="translate(13.228 0.058)" fill="#fff"/>
  </g>
</svg>
