<svg xmlns="http://www.w3.org/2000/svg" width="27.75" height="29.5" viewBox="0 0 27.75 29.5">
  <g id="shop" transform="translate(0.75 0.75)">
    <path id="Rectangle" d="M2.625,0A2.625,2.625,0,0,1,5.25,2.625v5.25H0V2.625A2.625,2.625,0,0,1,2.625,0Z" transform="translate(10.5 20.125)" fill="none" stroke="#fff" stroke-miterlimit="10" stroke-width="1.5"/>
    <path id="Shape" d="M0,0V10.125a3,3,0,0,0,3,3H18a3,3,0,0,0,3-3V0" transform="translate(2.625 14.875)" fill="none" stroke="#fff" stroke-linecap="round" stroke-linejoin="round" stroke-miterlimit="10" stroke-width="1.5"/>
    <path id="Shape-2" data-name="Shape" d="M26.25,10.818c0,2.7-1.444,4.057-3.281,4.057a3.3,3.3,0,0,1-3.281-3.381,3.283,3.283,0,1,1-6.562,0,3.283,3.283,0,1,1-6.562,0,3.3,3.3,0,0,1-3.281,3.381C1.444,14.875,0,13.523,0,10.818L4.7,1.127A2,2,0,0,1,6.5,0H19.748a2,2,0,0,1,1.8,1.127Z" fill="none" stroke="#df4c3b" stroke-linecap="round" stroke-linejoin="round" stroke-miterlimit="10" stroke-width="1.5"/>
  </g>
</svg>
